<?xml version="1.0" encoding="utf-8"?>
<!-- Generator: Adobe Illustrator 25.4.1, SVG Export Plug-In . SVG Version: 6.00 Build 0)  -->
<svg version="1.0" id="katman_1" xmlns="http://www.w3.org/2000/svg" xmlns:xlink="http://www.w3.org/1999/xlink" x="0px" y="0px"
	 viewBox="0 0 132 104" style="enable-background:new 0 0 132 104;" xml:space="preserve">
<style type="text/css">
	.st0{fill:url(#SVGID_1_);}
	.st1{fill:url(#SVGID_00000130622934180993703410000017420799098261276343_);}
	.st2{fill:url(#SVGID_00000060739771362873723200000017991140373209755022_);}
	.st3{fill:#FFFFFF;}
</style>
<symbol  id="rider" viewBox="-35 -35 70 70">
	<linearGradient id="SVGID_1_" gradientUnits="userSpaceOnUse" x1="30.4897" y1="5.1189" x2="-23.4683" y2="-25.8451">
		<stop  offset="0" style="stop-color:#DD1265"/>
		<stop  offset="0.483" style="stop-color:#DD1265"/>
		<stop  offset="0.942" style="stop-color:#FDB60D"/>
	</linearGradient>
	<path class="st0" d="M35-7.7L-14.1-35l32.9,48.9l6.7-4.4L35-7.7z"/>
	
		<linearGradient id="SVGID_00000169517474296634577950000016895268102491994795_" gradientUnits="userSpaceOnUse" x1="-1.5839" y1="-28.888" x2="19.8051" y2="30.175">
		<stop  offset="0.139" style="stop-color:#087CFA"/>
		<stop  offset="0.476" style="stop-color:#DD1265"/>
		<stop  offset="0.958" style="stop-color:#087CFA"/>
	</linearGradient>
	<path style="fill:url(#SVGID_00000169517474296634577950000016895268102491994795_);" d="M15.5-18.9l-6.2-15L-4.3-20.5l5.5,48.6
		L14.4,35L35,23L15.5-18.9z"/>
	
		<linearGradient id="SVGID_00000135668350575375336630000014638141720088491653_" gradientUnits="userSpaceOnUse" x1="-17.5865" y1="-27.0712" x2="-1.7875" y2="29.0738">
		<stop  offset="0.278" style="stop-color:#DD1265"/>
		<stop  offset="0.968" style="stop-color:#FDB60D"/>
	</linearGradient>
	<path style="fill:url(#SVGID_00000135668350575375336630000014638141720088491653_);" d="M-14.1-35L-35-20.9l7.8,48.1l20.1,7.7
		l26-21L-14.1-35z"/>
	<path d="M21-21h-42v42h42V-21z"/>
	<path class="st3" d="M-0.6,13.6h-15.8v2.7h15.8V13.6z"/>
	<path class="st3" d="M0.5-15.8h6.2c5,0,8.4,3.4,8.4,7.7c0,4.4-3.4,7.9-8.4,7.9L0.5,0V-15.8z M4-12.6v9.5h2.7c2.8,0,4.8-1.9,4.8-4.6
		c0-2.8-1.9-4.7-4.8-4.7L4-12.6z"/>
	<path class="st3" d="M-15.7-15.8h7.2c2,0,3.5,0.6,4.6,1.6c0.9,0.9,1.3,2.1,1.3,3.6v0.1c0,1.3-0.3,2.3-0.9,3.1
		C-4.1-6.6-4.9-6-5.9-5.6L-2,0h-4.1l-3.3-4.8h-2.9V0h-3.5L-15.7-15.8L-15.7-15.8z M-8.7-8.1c0.8,0,1.5-0.2,2-0.6
		c0.5-0.4,0.7-1,0.7-1.6v-0.1c0-0.8-0.2-1.3-0.7-1.7c-0.5-0.3-1.1-0.6-2-0.6h-3.4v4.5H-8.7z"/>
</symbol>
<use xlink:href="#rider"  width="70" height="70" x="-35" y="-35" transform="matrix(1 0 0 1 66 52)" style="overflow:visible;"/>
</svg>
