<?xml version="1.0" encoding="UTF-8"?>
<svg id="Layer_1" data-name="Layer 1" xmlns="http://www.w3.org/2000/svg" viewBox="0 0 512.26 512">
  <defs>
    <style>
      .cls-1 {
        fill: #fff;
      }

      .cls-2 {
        fill: #8e9ca6;
      }

      .cls-3 {
        fill: #173449;
      }
    </style>
  </defs>
  <g id="GGltLQ.tif">
    <g>
      <path class="cls-1" d="m.63.05c0,24.8,0,49.61,0,74.41,0,144.32,0,288.64,0,432.97q0,4.02,4.03,4.02c168.77,0,337.53,0,506.3,0,.33,0,.67.01,1,.02-.11.15.25.52-.25.5-.67-.02-1.33,0-2,0-169.11,0-338.22,0-507.33.05-1.87,0-2.29-.42-2.29-2.29C.13,340.57.13,171.43.16,2.29c0-.73-.58-1.69.47-2.25Z"/>
      <rect class="cls-3" x=".26" width="512" height="512"/>
      <path class="cls-2" d="m149.3,296.95c.08-3.66,1.21-6.9,3.11-9.76,4.06-6.13,7.66-12.52,11.25-18.92,1.45-2.58,3.17-5.03,4.96-7.39.96-1.26.85-2.79,1.7-4.09,4.69-7.09,9.29-14.23,13.57-21.59,2.84-4.88,6.21-9.51,9.34-14.24,1.93-2.91,3.62-6.07,5.49-9.07,2.18-3.49,4.2-7.06,6.38-10.54,1.93-3.07,3.87-6.15,5.74-9.27,1.99-3.32,4.13-6.56,6.06-9.92,2.97-5.15,6.96-9.61,9.77-14.87,2.87-5.38,5.79-10.74,8.98-15.93,3.98-6.47,8.18-12.8,12.44-19.09,5.72-8.45,18.45-6.94,23.28-.25,3.4,4.7,5.46,9.96,7.91,15.07,3.55,7.39,6.92,14.87,10.39,22.3,4.28,9.15,8.42,18.36,12.93,27.39,3.47,6.95,6.69,14.03,10.33,20.91,2.06,3.89,4.02,7.95,5.7,12.1,2.13,5.27,5.23,10.17,7.09,15.51,3.39,9.72,8.79,18.46,12.85,27.84,1.72,3.97,4.33,7.57,6.09,11.56,2.69,6.12,5.61,12.12,7.81,18.47,1.24,3.59,3.58,6.87,5.06,10.44,1.61,3.9,4.18,7.36,5.07,11.6,1.06,5.09.07,9.48-3.2,13.66-3.71,4.73-9.05,5.69-14.24,7.2-9.4,2.74-18.99,4.96-28.12,8.4-5.96,2.24-12.09,3.82-18.12,5.7-7.57,2.36-15.22,4.57-22.9,6.61-5.58,1.48-11.21,2.85-16.75,4.54-11.97,3.65-24.03,7.01-35.99,10.69-3.5,1.08-6.77,2.45-10.57,2.83-4.9.48-8.37-1.53-11.49-4.53-4.93-4.76-7.93-10.95-11.58-16.65-1.87-2.92-3.88-5.75-5.77-8.66-2.16-3.32-4.21-6.72-6.31-10.07-3.4-5.45-6.81-10.91-10.7-16.06-1.92-2.55-3.47-5.59-5.18-8.41-3.08-5.08-6.53-9.92-9.71-14.94-1.66-2.63-2.57-5.56-2.68-8.57Zm2.54-.68c.11.89.18,1.55.27,2.21.76,5.69,4.8,9.73,7.46,14.44,2.87,5.09,6.38,9.82,9.58,14.73,2.12,3.25,4.02,6.66,6.32,9.77,2.21,2.99,4.2,6.16,6.15,9.28,3.23,5.19,6.93,10.07,9.91,15.4,2.01,3.59,4.72,6.69,6.78,10.29,1.64,2.86,3.36,5.93,6.38,7.83,4.32,2.73,8.77,2.32,13.41,1.02,8.13-2.28,15.9-5.69,24.16-7.59,4.28-.98,8.2-3.19,12.6-3.81,1.99-.28,3.89-.95,5.71-1.75,4.95-2.18,10.38-2.65,15.42-4.67,4.96-1.99,10.42-2.53,15.6-4.05,10.34-3.03,20.72-5.98,30.93-9.38,8.43-2.8,17.17-4.34,25.6-7.04,2.82-.9,5.69-1.69,8.05-3.77,3.61-3.19,5.04-7.35,4.64-11.81-.28-3.03-1.82-6.01-3.13-8.86-3.73-8.13-7.88-16.05-11.85-24.06-3.49-7.02-6.56-14.23-10.18-21.21-2.89-5.57-5.03-11.6-7.63-17.37-2.2-4.9-4.67-9.69-6.84-14.6-1.45-3.27-3.58-6.17-4.99-9.43-1.97-4.55-4-9.1-6.26-13.47-3.69-7.13-6.27-14.73-10.06-21.82-4.11-7.7-6.87-16.06-11.38-23.62-2.18-3.65-3.83-7.71-5.37-11.67-3.48-8.89-8.14-17.18-12.22-25.75-1.78-3.73-7.89-6.43-11.98-6.06-6.58.6-9.54,5.59-12.49,10.22-2.01,3.16-3.82,6.58-5.82,9.74-2.99,4.73-5.92,9.52-8.95,14.24-4.28,6.64-8.33,13.44-12.44,20.19-2.9,4.76-6.09,9.36-8.77,14.27-.94,1.72-2.03,3.39-3.1,5.04-1.21,1.88-2.78,3.46-4.01,5.33-2.08,3.17-3.93,6.47-5.84,9.73-3.63,6.19-7.29,12.37-10.96,18.54-1.81,3.05-3.66,6.08-5.54,9.09-2.36,3.77-4.82,7.47-7.14,11.26-1.66,2.72-3.18,5.66-5.06,8.1-2.49,3.24-3.75,7.11-6.31,10.27-2.69,3.31-4.45,7.3-6.82,10.88-2.01,3.03-3.42,6.42-3.83,9.92Z"/>
      <path class="cls-1" d="m151.84,296.27c.41-3.5,1.82-6.89,3.83-9.92,2.37-3.58,4.13-7.57,6.82-10.88,2.57-3.16,3.82-7.03,6.31-10.27,1.88-2.44,3.4-5.38,5.06-8.1,2.31-3.79,4.78-7.5,7.14-11.26,1.88-3.01,3.73-6.04,5.54-9.09,3.67-6.17,7.33-12.35,10.96-18.54,1.91-3.27,3.76-6.56,5.84-9.73,1.23-1.86,2.79-3.44,4.01-5.33,1.06-1.65,2.16-3.32,3.1-5.04,2.68-4.91,5.87-9.5,8.77-14.27,4.11-6.75,8.16-13.55,12.44-20.19,3.03-4.71,5.96-9.5,8.95-14.24,2-3.17,3.81-6.58,5.82-9.74,2.95-4.63,5.91-9.62,12.49-10.22,4.09-.37,10.2,2.32,11.98,6.06,4.08,8.58,8.74,16.86,12.22,25.75,1.55,3.95,3.19,8.02,5.37,11.67,4.51,7.56,7.27,15.92,11.38,23.62,3.79,7.09,6.37,14.69,10.06,21.82,2.26,4.37,4.3,8.92,6.26,13.47,1.41,3.26,3.54,6.16,4.99,9.43,2.17,4.91,4.63,9.7,6.84,14.6,2.6,5.77,4.74,11.8,7.63,17.37,3.62,6.97,6.69,14.18,10.18,21.21,3.98,8.01,8.12,15.93,11.85,24.06,1.31,2.85,2.86,5.84,3.13,8.86.41,4.45-1.03,8.62-4.64,11.81-2.36,2.08-5.23,2.87-8.05,3.77-8.43,2.7-17.17,4.24-25.6,7.04-10.22,3.4-20.59,6.35-30.93,9.38-5.19,1.52-10.64,2.06-15.6,4.05-5.04,2.02-10.47,2.48-15.42,4.67-1.82.8-3.71,1.47-5.71,1.75-4.4.62-8.32,2.83-12.6,3.81-8.26,1.89-16.02,5.3-24.16,7.59-4.64,1.3-9.09,1.71-13.41-1.02-3.02-1.91-4.74-4.97-6.38-7.83-2.06-3.59-4.78-6.7-6.78-10.29-2.98-5.34-6.68-10.22-9.91-15.4-1.95-3.12-3.93-6.29-6.15-9.28-2.3-3.11-4.2-6.52-6.32-9.77-3.2-4.91-6.7-9.64-9.58-14.73-2.66-4.71-6.7-8.75-7.46-14.44-.09-.66-.16-1.32-.27-2.21Zm73.96,69.45c1.28.08,2.71-.32,4.15-.76,7.53-2.3,15.05-4.63,22.62-6.8,5.96-1.71,12.01-3.08,17.97-4.8,7.56-2.17,15.05-4.58,22.59-6.81,7.22-2.14,14.43-4.35,21.72-6.22,3.8-.97,7.16-2.97,11.02-3.83,4.73-1.06,9.34-2.71,13.97-4.22,5.48-1.79,7.33-6.07,5.25-11.38-.68-1.74-1.92-3.09-2.7-4.71-2.52-5.29-4.76-10.7-7.44-15.93-2.81-5.5-5.05-11.29-7.61-16.93-2.25-4.97-4.46-9.98-6.92-14.84-2.01-3.97-3.96-8.02-5.8-12.02-1.87-4.08-4.04-8.12-5.51-12.41-.24-.7-.4-1.47-.8-2.07-4.06-5.97-6.56-12.72-9.7-19.15-.76-1.54-.86-3.46-1.77-4.87-3.69-5.73-6.37-11.97-9.26-18.09-3.49-7.39-6.62-14.94-9.89-22.43-.5-1.14-.77-2.4-1.41-3.45-2.23-3.66-4.43-7.32-6.19-11.25-.97-2.16-2.58-3.96-5.29-3.93-1.98.02-4.4,2.31-4.95,4.69-2.5,10.84-5.09,21.66-7.39,32.54-2.49,11.77-4.67,23.6-7.07,35.39-.89,4.38-2.22,8.68-2.96,13.09-1.44,8.67-3.32,17.27-5.14,25.84-1.81,8.51-3.52,17.05-5.36,25.56-2.12,9.81-4.12,19.67-6.37,29.45-2.52,11-4.64,22.05-6.41,33.18-.69,4.36,2.03,7.22,6.65,7.18Z"/>
      <path class="cls-2" d="m225.8,365.72c-4.62.04-7.34-2.81-6.65-7.18,1.77-11.13,3.89-22.19,6.41-33.18,2.25-9.78,4.25-19.64,6.37-29.45,1.84-8.51,3.55-17.05,5.36-25.56,1.82-8.58,3.7-17.17,5.14-25.84.73-4.4,2.07-8.7,2.96-13.09,2.39-11.79,4.57-23.63,7.07-35.39,2.31-10.88,4.89-21.7,7.39-32.54.55-2.38,2.97-4.67,4.95-4.69,2.71-.02,4.32,1.78,5.29,3.93,1.77,3.93,3.96,7.59,6.19,11.25.64,1.05.91,2.31,1.41,3.45,3.27,7.49,6.41,15.04,9.89,22.43,2.89,6.12,5.57,12.36,9.26,18.09.91,1.42,1.01,3.33,1.77,4.87,3.15,6.43,5.65,13.18,9.7,19.15.41.6.56,1.37.8,2.07,1.47,4.29,3.64,8.33,5.51,12.41,1.83,4,3.79,8.05,5.8,12.02,2.47,4.87,4.67,9.87,6.92,14.84,2.55,5.64,4.79,11.43,7.61,16.93,2.68,5.23,4.92,10.64,7.44,15.93.77,1.62,2.02,2.97,2.7,4.71,2.08,5.32.23,9.6-5.25,11.38-4.62,1.51-9.23,3.16-13.97,4.22-3.85.86-7.22,2.87-11.02,3.83-7.29,1.86-14.5,4.07-21.72,6.22-7.54,2.24-15.03,4.64-22.59,6.81-5.96,1.71-12.01,3.09-17.97,4.8-7.57,2.17-15.09,4.5-22.62,6.8-1.45.44-2.87.84-4.15.76Zm.66-2.95c.24-.02,1.11.05,1.89-.17,6.05-1.72,11.92-4.02,18.07-5.45,3.2-.74,6.17-2.76,9.37-3.16,6.17-.77,11.83-3.21,17.7-4.84,6.6-1.84,13.24-3.67,19.76-5.89,6.97-2.38,14.17-4.09,21.25-6.16,8.18-2.4,16.34-4.91,24.52-7.29,3.78-1.1,5.36-4.17,3.48-7.64-2.47-4.57-4.56-9.33-6.75-14.02-2.48-5.32-4.76-10.72-7.45-15.95-2.33-4.55-4.15-9.36-6.32-13.99-3.81-8.11-7.72-16.16-11.57-24.24-.46-.97-.72-2.05-1.27-2.98-3.61-6.12-6.33-12.69-9.23-19.14-3.46-7.69-6.91-15.38-10.6-22.97-2.31-4.75-4.55-9.53-6.83-14.29-1.88-3.92-3.43-8.01-5.42-11.84-1.94-3.74-3.47-7.66-5.47-11.36-1.33-2.47-2.25-5.15-3.46-7.69-.69-1.44-1.92-2.37-3.57-2.27-1.19.07-1.96.95-2.24,2.07-.42,1.69-.83,3.39-1.03,5.12-.68,5.86-2.69,11.43-3.45,17.3-.59,4.51-2.15,9.01-2.99,13.49-1.9,10.2-4.36,20.28-6.22,30.48-1.78,9.76-4.51,19.35-6.05,29.14-1.29,8.2-4.07,16.01-5.46,24.16-.73,4.25-1.86,8.42-2.74,12.65-2.13,10.24-4.36,20.47-6.29,30.75-1.61,8.6-4.3,16.97-5.39,25.69-.26,2.06-.74,4.09-.96,6.16-.35,3.22.85,4.44,4.69,4.35Z"/>
      <path class="cls-3" d="m226.46,362.77c-3.84.09-5.04-1.13-4.69-4.35.23-2.06.71-4.1.96-6.16,1.09-8.71,3.78-17.08,5.39-25.69,1.93-10.28,4.15-20.5,6.29-30.75.88-4.22,2.01-8.4,2.74-12.65,1.4-8.15,4.17-15.96,5.46-24.16,1.54-9.79,4.27-19.38,6.05-29.14,1.86-10.21,4.32-20.28,6.22-30.48.83-4.49,2.4-8.98,2.99-13.49.77-5.88,2.78-11.45,3.45-17.3.2-1.72.61-3.43,1.03-5.12.28-1.12,1.05-2,2.24-2.07,1.66-.1,2.89.83,3.57,2.27,1.21,2.54,2.13,5.22,3.46,7.69,2,3.7,3.53,7.62,5.47,11.36,1.99,3.83,3.54,7.92,5.42,11.84,2.28,4.76,4.52,9.54,6.83,14.29,3.69,7.58,7.14,15.28,10.6,22.97,2.9,6.45,5.62,13.02,9.23,19.14.54.92.8,2,1.27,2.98,3.85,8.08,7.76,16.14,11.57,24.24,2.17,4.63,3.99,9.44,6.32,13.99,2.68,5.24,4.97,10.64,7.45,15.95,2.18,4.69,4.28,9.45,6.75,14.02,1.87,3.47.3,6.54-3.48,7.64-8.19,2.39-16.34,4.9-24.52,7.29-7.08,2.07-14.28,3.78-21.25,6.16-6.52,2.22-13.16,4.06-19.76,5.89-5.87,1.63-11.53,4.07-17.7,4.84-3.2.4-6.17,2.42-9.37,3.16-6.16,1.42-12.02,3.73-18.07,5.45-.78.22-1.65.15-1.89.17Z"/>
    </g>
  </g>
</svg>